# xmcd CD database file
# Copyright (C) 1995-1998 Ti Kan
#
# Track frame offsets:
#	150
#	21022
#	33430
#	43742
#	55775
#	60765
#	70610
#	81000
#	95495
#	107257
#	120440
#	135632
#	147227
#	154730
#
# Disc length: 2431 seconds
#
# Revision: 2
# Processed by: cddbd v1.5.1PL0 Copyright (c) Steve Scherf et al.
# Submitted via: CDex 1.30Release
#
DISCID=a7097d0e
DTITLE=John Denver - All Aboard
DYEAR=1997
DGENRE=Country
TTITLE0=Jenny Dreamed Of Trains
TTITLE1=Medley (Freight Train Boogie, Choo Choo Ch'Boogie)
TTITLE2=Steel Rails
TTITLE3=Waiting For A Train
TTITLE4=I've Been Working On The Railroad
TTITLE5=On The Atchison, Topeka And The Santa Fe
TTITLE6=Old Train
TTITLE7=Daddy, What's A Train?
TTITLE8=The Little Engine That Could
TTITLE9=Last Train Done Gone Down
TTITLE10=Last Hobo
TTITLE11=People Get Ready
TTITLE12=Lining Track
TTITLE13=City Of New Orleans and Jesse Dreamed Of Trains
EXTD=YEAR: 1997 ID3G:   2
EXTT0=
EXTT1=
EXTT2=
EXTT3=
EXTT4=
EXTT5=
EXTT6=
EXTT7=
EXTT8=
EXTT9=
EXTT10=
EXTT11=
EXTT12=
EXTT13=
PLAYORDER=
